<svg xmlns="http://www.w3.org/2000/svg" width="1280" height="720" viewBox="0 0 600 250">
  <style>
    text { font-family: Arial, sans-serif; font-size: 12px; fill: black; }
    .header { font-weight: bold; font-size: 16px; }
    .label { font-size: 14px; }
    .timeline { stroke: #999; stroke-width: 2; }
    .query-part { fill: #e0e0e0; stroke: #999; stroke-width: 1; }
    .problem-area { fill: none; stroke: #333; stroke-width: 2; stroke-dasharray: 1,1; }
  </style>

  <!-- Header -->
  <text x="300" y="30" text-anchor="middle" class="header">Query Execution Timeline</text>

  <!-- Normal Query Timeline -->
  <text x="10" y="70" class="label">Normal Query</text>
  <line x1="120" y1="65" x2="580" y2="65" class="timeline" />

  <rect x="120" y="55" width="30" height="20" class="query-part" />
  <text x="135" y="90" text-anchor="middle" font-size="10">Parse</text>

  <rect x="150" y="55" width="100" height="20" class="query-part" />
  <text x="200" y="90" text-anchor="middle" font-size="10">Execute</text>

  <rect x="250" y="55" width="50" height="20" class="query-part" />
  <text x="275" y="90" text-anchor="middle" font-size="10">Fetch</text>

  <text x="320" y="60" font-size="10">0.5s</text>

  <!-- Slow Query Timeline -->
  <text x="10" y="140" class="label">Slow Query</text>
  <line x1="120" y1="135" x2="580" y2="135" class="timeline" />

  <rect x="120" y="125" width="30" height="20" class="query-part" />
  <text x="135" y="165" text-anchor="middle" font-size="10">Parse</text>

  <rect x="150" y="125" width="400" height="20" class="query-part" />
  <text x="350" y="165" text-anchor="middle" font-size="10">Execute</text>

  <rect x="550" y="125" width="20" height="20" class="query-part" />
  <text x="560" y="165" text-anchor="middle" font-size="10">Fetch</text>

  <text x="580" y="120" font-size="10">5s</text>

  <!-- Highlight problem area -->
  <rect x="155" y="120" width="390" height="30" class="problem-area" />

  <!-- Time markers -->
  <line x1="120" y1="180" x2="120" y2="190" stroke="#333" />
  <text x="120" y="205" text-anchor="middle" font-size="10">0s</text>

  <line x1="320" y1="180" x2="320" y2="190" stroke="#333" />
  <text x="320" y="205" text-anchor="middle" font-size="10">2s</text>

  <line x1="520" y1="180" x2="520" y2="190" stroke="#333" />
  <text x="520" y="205" text-anchor="middle" font-size="10">4s</text>

  <!-- Legend -->
  <rect x="120" y="230" width="20" height="10" class="query-part" />
  <text x="145" y="239" font-size="10">Execution time</text>
</svg>
