<svg xmlns="http://www.w3.org/2000/svg" viewBox="0 0 800 550">
  <defs>
    <marker id="arrowhead" markerWidth="10" markerHeight="7" refX="0" refY="3.5" orient="auto">
      <polygon points="0 0, 10 3.5, 0 7" fill="#000"/>
    </marker>
  </defs>

  <!-- Background -->
  <rect width="100%" height="100%" fill="#ffffff"/>

  <!-- Synchronous Write Frame -->
  <rect x="30" y="20" width="440" height="200" fill="none" stroke="#4a90e2" stroke-width="2" stroke-dasharray="5,5"/>
  <text x="250" y="15" text-anchor="middle" font-size="14" fill="#4a90e2" font-weight="bold">Synchronous Write</text>

  <!-- Asynchronous Read Frame -->
  <rect x="330" y="230" width="440" height="270" fill="none" stroke="#50c878" stroke-width="2" stroke-dasharray="5,5"/>
  <text x="550" y="255" text-anchor="middle" font-size="14" fill="#50c878" font-weight="bold">Asynchronous Read</text>

  <!-- Primary Database -->
  <g transform="translate(350,50)">
    <rect width="100" height="120" fill="#f0f0f0" stroke="#000000" stroke-width="2"/>
    <text x="50" y="30" text-anchor="middle" font-size="14" font-weight="bold">Primary DB</text>
    <text x="50" y="70" text-anchor="middle" font-size="12">(Master)</text>
    <text x="50" y="100" text-anchor="middle" font-size="12">Read/Write</text>
  </g>

  <!-- Replica Databases -->
  <g transform="translate(150,250)">
    <rect width="100" height="120" fill="#e0e0e0" stroke="#000000" stroke-width="2"/>
    <text x="50" y="30" text-anchor="middle" font-size="14" font-weight="bold">Replica DB 1</text>
    <text x="50" y="70" text-anchor="middle" font-size="12">(Slave)</text>
    <text x="50" y="100" text-anchor="middle" font-size="12">Read-only</text>
  </g>

  <g transform="translate(350,250)">
    <rect width="100" height="120" fill="#e0e0e0" stroke="#000000" stroke-width="2"/>
    <text x="50" y="30" text-anchor="middle" font-size="14" font-weight="bold">Replica DB 2</text>
    <text x="50" y="70" text-anchor="middle" font-size="12">(Slave)</text>
    <text x="50" y="100" text-anchor="middle" font-size="12">Read-only</text>
  </g>

  <g transform="translate(550,250)">
    <rect width="100" height="120" fill="#e0e0e0" stroke="#000000" stroke-width="2"/>
    <text x="50" y="30" text-anchor="middle" font-size="14" font-weight="bold">Replica DB 3</text>
    <text x="50" y="70" text-anchor="middle" font-size="12">(Slave)</text>
    <text x="50" y="100" text-anchor="middle" font-size="12">Read-only</text>
  </g>

  <!-- Replication Arrows -->
  <line x1="400" y1="170" x2="200" y2="250" stroke="#000000" stroke-width="2" marker-end="url(#arrowhead)"/>
  <line x1="400" y1="170" x2="400" y2="250" stroke="#000000" stroke-width="2" marker-end="url(#arrowhead)"/>
  <line x1="400" y1="170" x2="600" y2="250" stroke="#000000" stroke-width="2" marker-end="url(#arrowhead)"/>

  <!-- Clients -->
  <g transform="translate(50,50)">
    <circle cx="50" cy="0" r="20" fill="#ffffff" stroke="#000000" stroke-width="2"/>
    <text x="50" y="40" text-anchor="middle" font-size="14">Client</text>
    <text x="50" y="60" text-anchor="middle" font-size="12">(Write)</text>
  </g>

  <g transform="translate(700,450)">
    <circle cx="50" cy="0" r="20" fill="#ffffff" stroke="#000000" stroke-width="2"/>
    <text x="50" y="40" text-anchor="middle" font-size="14">Client</text>
    <text x="50" y="60" text-anchor="middle" font-size="12">(Read)</text>
  </g>

  <!-- Client Arrows -->
  <line x1="120" y1="50" x2="350" y2="110" stroke="#4a90e2" stroke-width="2" marker-end="url(#arrowhead)"/>
  <line x1="730" y1="450" x2="650" y2="370" stroke="#50c878" stroke-width="2" marker-end="url(#arrowhead)"/>

  <!-- Labels -->
  <text x="230" y="30" text-anchor="middle" font-size="12" fill="#4a90e2">Write Requests</text>
  <text x="720" y="420" text-anchor="middle" font-size="12" fill="#50c878">Read Requests</text>
</svg>
